<svg width="144" height="144" viewBox="0 0 144 144" fill="none" xmlns="http://www.w3.org/2000/svg">
    <path
        d="M126.112 27C129.547 27 132.887 28.2021 136.133 30.6054C139.376 33.0096 141 36.5316 141 41.1713C141 46.8083 138.853 53.9555 134.558 62.6149C130.263 71.2752 124.942 79.6255 118.597 87.663C112.248 95.7023 105.02 102.601 96.9098 108.361C88.7957 114.12 81.3521 117 74.5769 117C69.8046 117 66.1319 115.57 63.5546 112.712C60.9784 109.853 59.6898 105.897 59.6898 100.84C59.6898 98.6858 59.8798 96.7812 60.262 95.1212C48.4273 109.709 37.5011 117 27.4802 117C23.1851 117 19.8445 115.82 17.4594 113.457C15.0732 111.096 13.8817 108.173 13.8817 104.694C13.8817 101.047 15.3844 96.6134 18.3898 91.3926C21.3963 86.1708 25.07 80.9936 29.4132 75.8542C33.7553 70.7149 38.0963 65.7216 42.4394 60.8743C46.7815 56.026 50.4563 51.5722 53.4617 47.5108C56.4693 43.4513 57.972 40.4678 57.972 38.5604C57.972 36.4899 56.3972 35.4527 53.2477 35.4527C48.6664 35.4527 43.4168 37.2559 37.5011 40.8603C31.582 44.4647 26.4286 48.7129 22.0406 53.6019C17.6505 58.4919 15.0262 62.8007 14.1679 66.5303C14.0707 68.2709 13.1653 69.1402 11.4475 69.1402C9.44356 69.1402 7.36754 68.0424 5.22053 65.8468C3.07351 63.6521 2 61.0601 2 58.0776C2 53.6019 4.71926 49.002 10.1589 44.2789C15.5985 39.5549 22.0635 35.7219 29.5562 32.7792C37.0468 29.8384 43.8471 28.3671 49.9551 28.3671C55.5858 28.3671 60.1419 29.59 63.6267 32.0341C67.1093 34.4791 68.8512 37.4009 68.8512 40.7987C68.8512 43.8646 67.0624 48.3801 63.4836 54.348C59.9038 60.315 55.944 66.0951 51.6019 71.6886C47.2576 77.2839 43.2989 82.9399 39.7202 88.6565C36.1414 94.3751 34.3515 98.5616 34.3515 101.213C34.3515 103.286 35.3541 104.321 37.358 104.321C43.3699 104.321 53.1985 95.4947 66.8472 77.8423C66.9411 77.6773 68.7081 75.3556 68.7081 75.3556C72.692 69.9878 73.5853 68.5145 76.8757 63.2387C77.9241 61.5815 78.6154 60.4837 78.9507 59.9443C79.2837 59.4067 79.761 58.7441 80.3824 57.9553C81.0016 57.1684 81.5498 56.6717 82.0292 56.464C82.5053 56.2574 83.0776 56.1521 83.7459 56.1521C85.6549 56.1521 87.6588 57.0234 89.7589 58.763C91.8568 60.5046 92.9084 62.1191 92.9084 63.6113C92.9084 64.1924 92.7599 64.4285 92.3351 65.1035C92.3351 65.1035 85.1493 75.4902 83.5122 77.8669C75.4375 89.597 75.9638 95.3838 75.9638 97.8696C75.9638 102.263 78.0595 104.321 81.5924 104.321C86.1725 104.321 91.8491 100.261 98.6265 92.1377C105.402 84.0178 111.296 74.5905 116.306 63.8578C121.315 53.127 123.822 44.3623 123.822 37.5659C123.822 35.4954 123.512 33.6097 122.891 31.9099C122.27 30.212 121.961 29.2364 121.961 28.989C121.961 27.6636 123.343 27 126.112 27Z"
        fill="#E31F26" />
</svg>
